# Blender v2.79 (sub 0) OBJ File: 'CheapTower.blend'
# www.blender.org
mtllib CheapTower.mtl
o Cylinder
v 0.000000 0.000000 -0.363230
v 0.000000 1.376673 -0.363230
v 0.070863 0.000000 -0.356251
v 0.070863 1.376673 -0.356251
v 0.139002 0.000000 -0.335581
v 0.139002 1.376673 -0.335581
v 0.201800 0.000000 -0.302015
v 0.201800 1.376673 -0.302015
v 0.256842 0.000000 -0.256842
v 0.256842 1.376673 -0.256842
v 0.302015 0.000000 -0.201800
v 0.302015 1.376673 -0.201800
v 0.335581 0.000000 -0.139002
v 0.335581 1.376673 -0.139002
v 0.356251 0.000000 -0.070863
v 0.356251 1.376673 -0.070863
v 0.363230 0.000000 -0.000000
v 0.363230 1.376673 -0.000000
v 0.356251 0.000000 0.070863
v 0.356251 1.376673 0.070863
v 0.335581 0.000000 0.139002
v 0.335581 1.376673 0.139002
v 0.302015 0.000000 0.201800
v 0.302015 1.376673 0.201800
v 0.256842 0.000000 0.256842
v 0.256842 1.376673 0.256842
v 0.201800 0.000000 0.302015
v 0.201800 1.376673 0.302015
v 0.139002 0.000000 0.335581
v 0.139002 1.376673 0.335581
v 0.070863 0.000000 0.356251
v 0.070863 1.376673 0.356251
v -0.000000 0.000000 0.363230
v -0.000000 1.376673 0.363230
v -0.070863 0.000000 0.356251
v -0.070863 1.376673 0.356251
v -0.139002 0.000000 0.335581
v -0.139002 1.376673 0.335581
v -0.201800 0.000000 0.302015
v -0.201800 1.376673 0.302015
v -0.256843 0.000000 0.256842
v -0.256843 1.376673 0.256842
v -0.302015 0.000000 0.201800
v -0.302015 1.376673 0.201800
v -0.335581 0.000000 0.139002
v -0.335581 1.376673 0.139002
v -0.356251 0.000000 0.070862
v -0.356251 1.376673 0.070862
v -0.363230 0.000000 -0.000000
v -0.363230 1.376673 -0.000000
v -0.356251 0.000000 -0.070863
v -0.356251 1.376673 -0.070863
v -0.335581 0.000000 -0.139002
v -0.335581 1.376673 -0.139002
v -0.302014 0.000000 -0.201800
v -0.302014 1.376673 -0.201800
v -0.256842 0.000000 -0.256843
v -0.256842 1.376673 -0.256843
v -0.201799 0.000000 -0.302015
v -0.201799 1.376673 -0.302015
v -0.139002 0.000000 -0.335581
v -0.139002 1.376673 -0.335581
v -0.070862 0.000000 -0.356251
v -0.070862 1.376673 -0.356251
v 0.103582 1.494600 -0.520744
v -0.000000 1.494600 -0.530946
v 0.203184 1.494600 -0.490530
v 0.294978 1.494600 -0.441465
v 0.375435 1.494600 -0.375435
v 0.441465 1.494600 -0.294978
v 0.490530 1.494600 -0.203184
v 0.520744 1.494600 -0.103582
v 0.530946 1.494600 0.000000
v 0.520744 1.494600 0.103582
v 0.490530 1.494600 0.203184
v 0.441465 1.494600 0.294978
v 0.375435 1.494600 0.375436
v 0.294978 1.494600 0.441465
v 0.203184 1.494600 0.490530
v 0.103582 1.494600 0.520744
v -0.000000 1.494600 0.530946
v -0.103583 1.494600 0.520744
v -0.203184 1.494600 0.490530
v -0.294978 1.494600 0.441465
v -0.375436 1.494600 0.375435
v -0.441466 1.494600 0.294977
v -0.490530 1.494600 0.203184
v -0.520744 1.494600 0.103582
v -0.530946 1.494600 -0.000000
v -0.520744 1.494600 -0.103583
v -0.490530 1.494600 -0.203185
v -0.441465 1.494600 -0.294978
v -0.375435 1.494600 -0.375436
v -0.294977 1.494600 -0.441466
v -0.203184 1.494600 -0.490530
v -0.103582 1.494600 -0.520744
v 0.103582 1.839957 -0.520744
v -0.000000 1.839957 -0.530946
v 0.203184 1.839957 -0.490530
v 0.294978 1.839957 -0.441465
v 0.375435 1.839957 -0.375435
v 0.441465 1.839957 -0.294978
v 0.490530 1.839957 -0.203184
v 0.520744 1.839957 -0.103582
v 0.530946 1.839957 0.000000
v 0.520744 1.839957 0.103582
v 0.490530 1.839957 0.203184
v 0.441465 1.839957 0.294978
v 0.375435 1.839957 0.375436
v 0.294978 1.839957 0.441465
v 0.203184 1.839957 0.490530
v 0.103582 1.839957 0.520744
v -0.000000 1.839957 0.530946
v -0.103583 1.839957 0.520744
v -0.203184 1.839957 0.490530
v -0.294978 1.839957 0.441465
v -0.375436 1.839957 0.375435
v -0.441466 1.839957 0.294977
v -0.490530 1.839957 0.203184
v -0.520744 1.839957 0.103582
v -0.530946 1.839957 -0.000000
v -0.520744 1.839957 -0.103583
v -0.490530 1.839957 -0.203185
v -0.441465 1.839957 -0.294978
v -0.375435 1.839957 -0.375436
v -0.294977 1.839957 -0.441466
v -0.203184 1.839957 -0.490530
v -0.103582 1.839957 -0.520744
v -0.000000 1.997894 -0.000000
vn 0.0980 0.0000 -0.9952
vn 0.2903 0.0000 -0.9569
vn 0.4714 0.0000 -0.8819
vn 0.6344 0.0000 -0.7730
vn 0.7730 0.0000 -0.6344
vn 0.8819 0.0000 -0.4714
vn 0.9569 0.0000 -0.2903
vn 0.9952 0.0000 -0.0980
vn 0.9952 0.0000 0.0980
vn 0.9569 0.0000 0.2903
vn 0.8819 0.0000 0.4714
vn 0.7730 0.0000 0.6344
vn 0.6344 0.0000 0.7730
vn 0.4714 0.0000 0.8819
vn 0.2903 0.0000 0.9569
vn 0.0980 0.0000 0.9952
vn -0.0980 0.0000 0.9952
vn -0.2903 0.0000 0.9569
vn -0.4714 0.0000 0.8819
vn -0.6344 0.0000 0.7730
vn -0.7730 0.0000 0.6344
vn -0.8819 0.0000 0.4714
vn -0.9569 0.0000 0.2903
vn -0.9952 0.0000 0.0980
vn -0.9952 0.0000 -0.0980
vn -0.9569 0.0000 -0.2903
vn -0.8819 0.0000 -0.4714
vn -0.7730 0.0000 -0.6344
vn -0.6344 0.0000 -0.7730
vn -0.4714 0.0000 -0.8819
vn 0.4461 -0.8167 -0.3661
vn -0.2903 0.0000 -0.9569
vn -0.0980 0.0000 -0.9952
vn 0.0000 -1.0000 0.0000
vn 0.2720 -0.8167 0.5089
vn -0.5522 -0.8167 0.1675
vn 0.0566 -0.8167 -0.5743
vn -0.0566 -0.8167 -0.5743
vn 0.5522 -0.8167 0.1675
vn -0.2720 -0.8167 0.5089
vn -0.4461 -0.8167 -0.3661
vn 0.5089 -0.8167 -0.2720
vn 0.1675 -0.8167 0.5522
vn -0.5743 -0.8167 0.0566
vn 0.1675 -0.8167 -0.5522
vn 0.5089 -0.8167 0.2720
vn -0.3661 -0.8167 0.4461
vn -0.3661 -0.8167 -0.4461
vn 0.5522 -0.8167 -0.1675
vn 0.0566 -0.8167 0.5743
vn -0.5743 -0.8167 -0.0566
vn 0.2720 -0.8167 -0.5089
vn 0.4461 -0.8167 0.3661
vn -0.4461 -0.8167 0.3661
vn -0.2720 -0.8167 -0.5089
vn 0.5743 -0.8167 -0.0566
vn -0.0566 -0.8167 0.5743
vn -0.5522 -0.8167 -0.1675
vn 0.3661 -0.8167 -0.4461
vn 0.3661 -0.8167 0.4461
vn -0.5089 -0.8167 0.2720
vn -0.1675 -0.8167 -0.5522
vn 0.5743 -0.8167 0.0566
vn -0.1675 -0.8167 0.5522
vn -0.5089 -0.8167 -0.2720
vn 0.0831 0.9581 -0.2741
vn -0.0281 0.9581 0.2850
vn -0.2850 0.9581 -0.0281
vn 0.2850 0.9581 0.0281
vn -0.0281 0.9581 -0.2850
vn 0.0281 0.9581 0.2850
vn -0.0831 0.9581 -0.2741
vn 0.0831 0.9581 0.2741
vn -0.1350 0.9581 -0.2526
vn 0.1350 0.9581 0.2526
vn -0.1817 0.9581 -0.2214
vn 0.1817 0.9581 0.2214
vn -0.2214 0.9581 -0.1817
vn 0.2214 0.9581 0.1817
vn -0.2526 0.9581 -0.1350
vn 0.2526 0.9581 0.1350
vn -0.2741 0.9581 -0.0831
vn 0.2741 0.9581 0.0831
vn -0.2850 0.9581 0.0281
vn 0.2850 0.9581 -0.0281
vn -0.2741 0.9581 0.0831
vn 0.2741 0.9581 -0.0831
vn -0.2526 0.9581 0.1350
vn 0.2526 0.9581 -0.1350
vn -0.2214 0.9581 0.1817
vn 0.2214 0.9581 -0.1817
vn -0.1817 0.9581 0.2214
vn 0.1817 0.9581 -0.2214
vn -0.1350 0.9581 0.2526
vn 0.1350 0.9581 -0.2526
vn -0.0831 0.9581 0.2741
vn 0.0281 0.9581 -0.2850
usemtl Material.001
s off
f 2//1 3//1 1//1
f 4//2 5//2 3//2
f 6//3 7//3 5//3
f 8//4 9//4 7//4
f 10//5 11//5 9//5
f 12//6 13//6 11//6
f 14//7 15//7 13//7
f 16//8 17//8 15//8
f 18//9 19//9 17//9
f 20//10 21//10 19//10
f 22//11 23//11 21//11
f 24//12 25//12 23//12
f 26//13 27//13 25//13
f 28//14 29//14 27//14
f 30//15 31//15 29//15
f 32//16 33//16 31//16
f 34//17 35//17 33//17
f 36//18 37//18 35//18
f 38//19 39//19 37//19
f 40//20 41//20 39//20
f 42//21 43//21 41//21
f 44//22 45//22 43//22
f 46//23 47//23 45//23
f 48//24 49//24 47//24
f 50//25 51//25 49//25
f 52//26 53//26 51//26
f 54//27 55//27 53//27
f 56//28 57//28 55//28
f 58//29 59//29 57//29
f 60//30 61//30 59//30
f 12//31 69//31 70//31
f 62//32 63//32 61//32
f 64//33 1//33 63//33
f 15//34 31//34 47//34
f 77//13 110//13 78//13
f 30//35 78//35 79//35
f 46//36 88//36 48//36
f 2//37 65//37 4//37
f 64//38 66//38 2//38
f 22//39 74//39 75//39
f 40//40 83//40 84//40
f 56//41 93//41 58//41
f 12//42 71//42 14//42
f 30//43 80//43 32//43
f 48//44 89//44 50//44
f 4//45 67//45 6//45
f 24//46 75//46 76//46
f 40//47 85//47 42//47
f 58//48 94//48 60//48
f 14//49 72//49 16//49
f 32//50 81//50 34//50
f 50//51 90//51 52//51
f 6//52 68//52 8//52
f 26//53 76//53 77//53
f 42//54 86//54 44//54
f 60//55 95//55 62//55
f 18//56 72//56 73//56
f 36//57 81//57 82//57
f 52//58 91//58 54//58
f 8//59 69//59 10//59
f 28//60 77//60 78//60
f 44//61 87//61 46//61
f 62//62 96//62 64//62
f 18//63 74//63 20//63
f 36//64 83//64 38//64
f 54//65 92//65 56//65
f 97//66 129//66 99//66
f 91//27 124//27 92//27
f 78//14 111//14 79//14
f 66//1 97//1 65//1
f 92//28 125//28 93//28
f 79//15 112//15 80//15
f 65//2 99//2 67//2
f 93//29 126//29 94//29
f 81//16 112//16 113//16
f 67//3 100//3 68//3
f 94//30 127//30 95//30
f 82//17 113//17 114//17
f 68//4 101//4 69//4
f 95//32 128//32 96//32
f 82//18 115//18 83//18
f 69//5 102//5 70//5
f 96//33 98//33 66//33
f 83//19 116//19 84//19
f 70//6 103//6 71//6
f 84//20 117//20 85//20
f 71//7 104//7 72//7
f 85//21 118//21 86//21
f 72//8 105//8 73//8
f 86//22 119//22 87//22
f 73//9 106//9 74//9
f 87//23 120//23 88//23
f 74//10 107//10 75//10
f 88//24 121//24 89//24
f 75//11 108//11 76//11
f 89//25 122//25 90//25
f 76//12 109//12 77//12
f 90//26 123//26 91//26
f 113//67 129//67 114//67
f 121//68 129//68 122//68
f 105//69 129//69 106//69
f 128//70 129//70 98//70
f 112//71 129//71 113//71
f 127//72 129//72 128//72
f 111//73 129//73 112//73
f 126//74 129//74 127//74
f 110//75 129//75 111//75
f 125//76 129//76 126//76
f 109//77 129//77 110//77
f 124//78 129//78 125//78
f 108//79 129//79 109//79
f 123//80 129//80 124//80
f 107//81 129//81 108//81
f 122//82 129//82 123//82
f 106//83 129//83 107//83
f 120//84 129//84 121//84
f 104//85 129//85 105//85
f 119//86 129//86 120//86
f 103//87 129//87 104//87
f 118//88 129//88 119//88
f 102//89 129//89 103//89
f 117//90 129//90 118//90
f 101//91 129//91 102//91
f 116//92 129//92 117//92
f 100//93 129//93 101//93
f 115//94 129//94 116//94
f 99//95 129//95 100//95
f 114//96 129//96 115//96
f 129//97 97//97 98//97
f 2//1 4//1 3//1
f 4//2 6//2 5//2
f 6//3 8//3 7//3
f 8//4 10//4 9//4
f 10//5 12//5 11//5
f 12//6 14//6 13//6
f 14//7 16//7 15//7
f 16//8 18//8 17//8
f 18//9 20//9 19//9
f 20//10 22//10 21//10
f 22//11 24//11 23//11
f 24//12 26//12 25//12
f 26//13 28//13 27//13
f 28//14 30//14 29//14
f 30//15 32//15 31//15
f 32//16 34//16 33//16
f 34//17 36//17 35//17
f 36//18 38//18 37//18
f 38//19 40//19 39//19
f 40//20 42//20 41//20
f 42//21 44//21 43//21
f 44//22 46//22 45//22
f 46//23 48//23 47//23
f 48//24 50//24 49//24
f 50//25 52//25 51//25
f 52//26 54//26 53//26
f 54//27 56//27 55//27
f 56//28 58//28 57//28
f 58//29 60//29 59//29
f 60//30 62//30 61//30
f 12//31 10//31 69//31
f 62//32 64//32 63//32
f 64//33 2//33 1//33
f 63//34 1//34 3//34
f 3//34 5//34 7//34
f 7//34 9//34 11//34
f 11//34 13//34 7//34
f 13//34 15//34 7//34
f 15//34 17//34 19//34
f 19//34 21//34 15//34
f 21//34 23//34 15//34
f 23//34 25//34 31//34
f 25//34 27//34 31//34
f 27//34 29//34 31//34
f 31//34 33//34 35//34
f 35//34 37//34 39//34
f 39//34 41//34 43//34
f 43//34 45//34 47//34
f 47//34 49//34 51//34
f 51//34 53//34 55//34
f 55//34 57//34 63//34
f 57//34 59//34 63//34
f 59//34 61//34 63//34
f 63//34 3//34 7//34
f 31//34 35//34 47//34
f 35//34 39//34 47//34
f 39//34 43//34 47//34
f 47//34 51//34 63//34
f 51//34 55//34 63//34
f 63//34 7//34 15//34
f 15//34 23//34 31//34
f 63//34 15//34 47//34
f 77//13 109//13 110//13
f 30//35 28//35 78//35
f 46//36 87//36 88//36
f 2//37 66//37 65//37
f 64//38 96//38 66//38
f 22//39 20//39 74//39
f 40//40 38//40 83//40
f 56//41 92//41 93//41
f 12//42 70//42 71//42
f 30//43 79//43 80//43
f 48//44 88//44 89//44
f 4//45 65//45 67//45
f 24//46 22//46 75//46
f 40//47 84//47 85//47
f 58//48 93//48 94//48
f 14//49 71//49 72//49
f 32//50 80//50 81//50
f 50//51 89//51 90//51
f 6//52 67//52 68//52
f 26//53 24//53 76//53
f 42//54 85//54 86//54
f 60//55 94//55 95//55
f 18//56 16//56 72//56
f 36//57 34//57 81//57
f 52//58 90//58 91//58
f 8//59 68//59 69//59
f 28//60 26//60 77//60
f 44//61 86//61 87//61
f 62//62 95//62 96//62
f 18//63 73//63 74//63
f 36//64 82//64 83//64
f 54//65 91//65 92//65
f 91//27 123//27 124//27
f 78//14 110//14 111//14
f 66//1 98//1 97//1
f 92//28 124//28 125//28
f 79//15 111//15 112//15
f 65//2 97//2 99//2
f 93//29 125//29 126//29
f 81//16 80//16 112//16
f 67//3 99//3 100//3
f 94//30 126//30 127//30
f 82//17 81//17 113//17
f 68//4 100//4 101//4
f 95//32 127//32 128//32
f 82//18 114//18 115//18
f 69//5 101//5 102//5
f 96//33 128//33 98//33
f 83//19 115//19 116//19
f 70//6 102//6 103//6
f 84//20 116//20 117//20
f 71//7 103//7 104//7
f 85//21 117//21 118//21
f 72//8 104//8 105//8
f 86//22 118//22 119//22
f 73//9 105//9 106//9
f 87//23 119//23 120//23
f 74//10 106//10 107//10
f 88//24 120//24 121//24
f 75//11 107//11 108//11
f 89//25 121//25 122//25
f 76//12 108//12 109//12
f 90//26 122//26 123//26
