# Blender v2.79 (sub 0) OBJ File: 'Enemy.blend'
# www.blender.org
mtllib Enemy.mtl
o Cube
v 0.100439 0.358129 -0.045711
v 0.100439 0.358129 0.045712
v 0.100439 0.759320 -0.045711
v 0.100439 0.759320 0.045712
v 0.050223 0.759320 -0.016643
v 0.050223 0.759320 0.016643
v 0.050223 0.809507 -0.016661
v 0.050223 0.809507 0.016661
v 0.099319 0.818235 -0.100823
v 0.099319 0.818235 0.100823
v 0.099319 1.000074 -0.100823
v 0.099319 1.000074 0.100823
v 0.100064 0.250863 -0.129765
v 0.100064 0.159459 -0.131607
v -0.000375 0.250863 -0.129765
v -0.000375 0.159459 -0.131607
v 0.100064 0.254890 -0.329567
v 0.100064 0.163485 -0.331409
v -0.000375 0.254890 -0.329567
v -0.000375 0.163485 -0.331409
v 0.100064 0.255991 -0.384229
v 0.100064 0.164587 -0.386071
v -0.000375 0.255991 -0.384229
v -0.000375 0.164587 -0.386071
v 0.100064 0.110707 -0.332472
v -0.000375 0.110707 -0.332472
v 0.100064 0.111809 -0.387135
v -0.000375 0.111809 -0.387135
v 0.100439 0.659229 -0.045711
v 0.100439 0.659229 0.045712
v 0.101166 0.724550 -0.066036
v 0.101166 0.773660 0.021179
v 0.101166 0.644889 -0.021178
v 0.101166 0.693999 0.066036
v 0.196741 0.724550 -0.066036
v 0.196741 0.773660 0.021179
v 0.196741 0.644889 -0.021178
v 0.196740 0.693998 0.066036
v 0.101166 0.648430 -0.184042
v 0.101166 0.577385 -0.126503
v 0.196741 0.648430 -0.184042
v 0.196741 0.577385 -0.126503
v 0.101166 0.490224 -0.379386
v 0.101166 0.419178 -0.321847
v 0.196741 0.490223 -0.379386
v 0.196741 0.419178 -0.321847
v -0.100439 0.358129 -0.045711
v -0.100439 0.358129 0.045712
v -0.100439 0.759320 -0.045711
v -0.100439 0.759320 0.045712
v -0.000000 0.358129 -0.045711
v -0.000000 0.358129 0.045712
v -0.000000 0.759320 -0.045711
v -0.000000 0.759320 0.045712
v -0.000000 0.759320 -0.016643
v -0.000000 0.759320 0.016643
v -0.050223 0.759320 -0.016643
v -0.050223 0.759320 0.016643
v -0.000000 0.809507 -0.016661
v -0.000000 0.809507 0.016661
v -0.050223 0.809507 -0.016661
v -0.050223 0.809507 0.016661
v -0.000000 0.818235 -0.100823
v -0.000000 0.818235 0.100823
v -0.099319 0.818235 -0.100823
v -0.099319 0.818235 0.100823
v -0.000000 1.000074 -0.100823
v -0.000000 1.000074 0.100823
v -0.099319 1.000074 -0.100823
v -0.099319 1.000074 0.100823
v -0.100427 0.187117 0.101410
v -0.100427 0.249435 0.168302
v 0.000012 0.187117 0.101410
v 0.000012 0.249435 0.168302
v -0.100427 0.040896 0.237632
v -0.100427 0.103215 0.304524
v 0.000012 0.040896 0.237632
v 0.000012 0.103215 0.304524
v -0.100427 0.000893 0.274900
v -0.100427 0.063211 0.341793
v 0.000012 0.000893 0.274900
v 0.000012 0.063211 0.341793
v -0.100427 0.139198 0.343148
v 0.000012 0.139198 0.343148
v -0.100427 0.099194 0.380417
v 0.000012 0.099194 0.380417
v -0.100439 0.659229 -0.045711
v -0.100439 0.659229 0.045712
v -0.000000 0.659229 -0.045711
v -0.000000 0.659229 0.045712
v -0.102076 0.642599 -0.012183
v -0.102076 0.727431 -0.065302
v -0.102075 0.691118 0.065303
v -0.102075 0.775950 0.012184
v -0.197650 0.642599 -0.012183
v -0.197650 0.727431 -0.065302
v -0.197650 0.691118 0.065303
v -0.197650 0.775950 0.012184
v -0.102076 0.555886 0.164745
v -0.102075 0.647303 0.165829
v -0.197650 0.555886 0.164745
v -0.197650 0.647303 0.165829
v -0.102076 0.552905 0.416101
v -0.102075 0.644322 0.417185
v -0.197650 0.552905 0.416101
v -0.197650 0.644322 0.417185
v 0.140896 0.520348 -0.365385
v 0.140896 0.432255 -0.294574
v 0.140896 0.535762 -0.346209
v 0.140896 0.447669 -0.275398
v 0.157099 0.520348 -0.365385
v 0.157099 0.432255 -0.294574
v 0.157099 0.535762 -0.346209
v 0.157099 0.447669 -0.275398
v 0.140896 0.377616 -0.271122
v 0.140896 0.413020 -0.227078
v 0.157099 0.413020 -0.227078
v 0.157099 0.377616 -0.271122
v 0.157099 0.493071 -0.218915
v 0.140896 0.493071 -0.218915
v 0.140896 0.448427 -0.183029
v 0.157099 0.448427 -0.183029
v 0.140896 0.386853 -0.351056
v 0.157099 0.386853 -0.351056
v 0.157099 0.342209 -0.315171
v 0.140896 0.342209 -0.315171
v 0.140896 0.180297 -0.112513
v 0.140896 0.215701 -0.068469
v 0.157099 0.215701 -0.068469
v 0.157099 0.180297 -0.112513
v 0.140896 0.152570 -0.053973
v 0.148998 0.215701 -0.068469
v 0.157099 0.152570 -0.053973
v 0.148998 0.180297 -0.112513
v 0.148998 0.152570 -0.053973
v 0.134064 0.520348 -0.365385
v 0.134064 0.432255 -0.294574
v 0.134064 0.447669 -0.275398
v 0.134064 0.535762 -0.346209
v 0.163931 0.535762 -0.346209
v 0.163931 0.447669 -0.275398
v 0.163931 0.432255 -0.294574
v 0.163931 0.520348 -0.365385
v 0.163931 0.432255 -0.294574
v 0.163931 0.447669 -0.275398
v 0.163931 0.413020 -0.227078
v 0.163931 0.377616 -0.271122
v 0.134064 0.447669 -0.275398
v 0.134064 0.432255 -0.294574
v 0.134064 0.377616 -0.271122
v 0.134064 0.413020 -0.227078
v 0.134064 0.413020 -0.227078
v 0.134064 0.448427 -0.183029
v 0.134064 0.493071 -0.218915
v 0.134064 0.447669 -0.275398
v 0.163931 0.447669 -0.275398
v 0.163931 0.493071 -0.218915
v 0.163931 0.448427 -0.183029
v 0.163931 0.413020 -0.227078
v 0.163931 0.377616 -0.271122
v 0.163931 0.342209 -0.315171
v 0.163931 0.386853 -0.351056
v 0.163931 0.432255 -0.294574
v 0.134064 0.432255 -0.294574
v 0.134064 0.386853 -0.351056
v 0.134064 0.342209 -0.315171
v 0.134064 0.377616 -0.271122
v -0.158483 0.542483 0.386207
v -0.158483 0.655507 0.386207
v -0.158483 0.542483 0.361604
v -0.158483 0.655507 0.361604
v -0.142280 0.542483 0.386207
v -0.142280 0.655507 0.386207
v -0.142280 0.542483 0.361604
v -0.142280 0.655507 0.361604
v -0.158483 0.712786 0.402161
v -0.158483 0.712786 0.345651
v -0.142280 0.712786 0.345651
v -0.142280 0.712786 0.402161
v -0.142280 0.655507 0.289136
v -0.158483 0.655507 0.289136
v -0.158483 0.712786 0.289136
v -0.142280 0.712786 0.289136
v -0.158483 0.655507 0.458676
v -0.142280 0.655507 0.458676
v -0.142280 0.712786 0.458676
v -0.158483 0.712786 0.458676
v -0.158483 0.965949 0.402161
v -0.158483 0.965949 0.345651
v -0.142280 0.965949 0.345651
v -0.142280 0.965949 0.402161
v -0.158483 1.024236 0.373906
v -0.150382 0.965949 0.345651
v -0.142280 1.024236 0.373906
v -0.150382 0.965949 0.402161
v -0.150382 1.024236 0.373906
v -0.165315 0.542483 0.386207
v -0.165315 0.655507 0.386207
v -0.165315 0.655507 0.361604
v -0.165315 0.542483 0.361604
v -0.135448 0.542483 0.361604
v -0.135448 0.655507 0.361604
v -0.135448 0.655507 0.386207
v -0.135448 0.542483 0.386207
v -0.135448 0.655507 0.386207
v -0.135448 0.655507 0.361604
v -0.135448 0.712786 0.345651
v -0.135448 0.712786 0.402161
v -0.165315 0.655507 0.361604
v -0.165315 0.655507 0.386207
v -0.165315 0.712786 0.402161
v -0.165315 0.712786 0.345651
v -0.165315 0.712786 0.345651
v -0.165315 0.712786 0.289136
v -0.165315 0.655507 0.289136
v -0.165315 0.655507 0.361604
v -0.135448 0.655507 0.361604
v -0.135448 0.655507 0.289136
v -0.135448 0.712786 0.289136
v -0.135448 0.712786 0.345651
v -0.135448 0.712786 0.402161
v -0.135448 0.712786 0.458676
v -0.135448 0.655507 0.458676
v -0.135448 0.655507 0.386207
v -0.165315 0.655507 0.386207
v -0.165315 0.655507 0.458676
v -0.165315 0.712786 0.458676
v -0.165315 0.712786 0.402161
vn 0.0000 0.0000 -1.0000
vn -0.0000 -0.0000 1.0000
vn 0.0000 1.0000 0.0000
vn -0.0000 -0.6659 0.7461
vn 0.0000 -0.9947 0.1032
vn 0.0000 -0.0004 1.0000
vn 0.0000 -0.0004 -1.0000
vn 1.0000 -0.0000 -0.0000
vn -1.0000 -0.0000 0.0000
vn 0.0000 -0.9947 -0.1032
vn 0.1750 -0.9846 -0.0000
vn 0.0000 -0.9998 -0.0201
vn 0.0000 0.9998 0.0201
vn 0.0000 0.6168 -0.7871
vn 1.0000 -0.0035 0.0000
vn -1.0000 -0.0000 0.0022
vn 0.0000 -0.0201 0.9998
vn 0.0000 0.0201 -0.9998
vn -0.0000 -0.8714 0.4907
vn -0.0000 0.4907 0.8714
vn 0.0000 0.8714 -0.4907
vn 0.0000 0.7771 -0.6294
vn 0.0000 0.8403 -0.5421
vn -0.0000 -0.8419 0.5396
vn -0.0000 -0.6294 -0.7771
vn -0.0000 -0.7771 0.6294
vn 0.0000 0.7482 0.6634
vn -0.1750 -0.9846 0.0000
vn 0.0000 0.6816 0.7317
vn 0.0000 -0.6816 -0.7317
vn -0.0000 -0.6522 -0.7581
vn -1.0000 -0.0001 0.0000
vn 1.0000 0.0001 0.0000
vn 0.0000 0.7317 -0.6816
vn 0.0000 -0.7317 0.6816
vn 0.0000 0.5307 0.8476
vn 0.0000 0.8476 -0.5307
vn -0.0000 -0.5307 -0.8476
vn -0.0000 -0.9999 -0.0119
vn -0.0000 -0.8980 -0.4401
vn 0.0000 0.9167 0.3996
vn -0.0000 -0.0119 0.9999
vn 0.0000 0.9999 0.0119
vn 0.0000 0.6265 0.7794
vn 0.0000 -0.6265 -0.7794
vn 0.0000 0.7794 -0.6265
vn 0.0000 -0.9037 -0.4281
vn 0.0000 -0.7794 0.6265
vn 0.0000 0.2238 0.9746
vn 0.0000 0.8127 0.5827
vn 0.0000 -0.3944 -0.9189
vn 0.0000 -0.8127 -0.5827
vn 0.0000 0.3944 0.9189
vn 0.0000 -1.0000 0.0000
vn 0.0000 0.4362 0.8998
vn 0.0000 0.4362 -0.8998
vn 0.0000 -0.2683 -0.9633
vn 0.0000 -0.2683 0.9633
vn 0.0000 0.2683 0.9633
vn 0.0000 0.2683 -0.9633
vn 1.0000 0.0000 -0.0022
vn -1.0000 0.0035 0.0000
usemtl Material
s off
f 1//1 89//1 29//1
f 4//2 90//2 30//2
f 3//3 6//3 4//3
f 52//4 14//4 2//4
f 8//5 64//5 60//5
f 6//6 60//6 56//6
f 55//7 7//7 5//7
f 6//8 7//8 8//8
f 24//9 26//9 20//9
f 9//8 12//8 10//8
f 7//10 63//10 9//10
f 8//11 9//11 10//11
f 18//8 27//8 22//8
f 12//3 67//3 68//3
f 26//12 27//12 25//12
f 10//2 68//2 64//2
f 63//1 11//1 9//1
f 13//13 19//13 15//13
f 51//14 13//14 15//14
f 2//15 13//15 1//15
f 52//16 15//16 16//16
f 20//17 25//17 18//17
f 16//12 18//12 14//12
f 13//8 18//8 17//8
f 15//9 20//9 16//9
f 22//18 23//18 21//18
f 17//8 22//8 21//8
f 19//9 24//9 20//9
f 17//13 23//13 19//13
f 22//18 28//18 24//18
f 30//2 52//2 2//2
f 29//1 53//1 3//1
f 29//8 2//8 1//8
f 31//9 40//9 33//9
f 32//9 33//9 34//9
f 35//8 38//8 37//8
f 33//19 38//19 34//19
f 32//20 38//20 36//20
f 32//21 35//21 31//21
f 39//22 45//22 43//22
f 31//23 41//23 39//23
f 37//24 40//24 42//24
f 35//8 42//8 41//8
f 44//25 45//25 46//25
f 39//9 44//9 40//9
f 40//26 46//26 42//26
f 42//8 45//8 41//8
f 89//1 47//1 87//1
f 90//2 50//2 88//2
f 49//3 50//3 57//3
f 72//27 52//27 48//27
f 64//5 62//5 60//5
f 60//6 58//6 56//6
f 61//7 55//7 57//7
f 58//9 61//9 57//9
f 84//8 82//8 78//8
f 70//9 65//9 66//9
f 61//10 63//10 59//10
f 62//28 65//28 61//28
f 80//9 83//9 76//9
f 68//3 69//3 70//3
f 85//29 84//29 83//29
f 68//2 66//2 64//2
f 69//1 63//1 65//1
f 77//30 71//30 73//30
f 51//31 71//31 47//31
f 71//32 48//32 47//32
f 52//33 73//33 51//33
f 83//34 78//34 76//34
f 76//29 74//29 72//29
f 71//9 76//9 72//9
f 78//8 73//8 74//8
f 81//35 80//35 79//35
f 79//9 76//9 75//9
f 82//8 77//8 78//8
f 81//30 75//30 77//30
f 86//35 80//35 82//35
f 52//2 88//2 48//2
f 53//1 87//1 49//1
f 48//9 87//9 47//9
f 93//8 99//8 91//8
f 94//8 91//8 92//8
f 87//9 50//9 49//9
f 4//8 29//8 3//8
f 97//9 96//9 95//9
f 98//36 93//36 94//36
f 92//37 98//37 94//37
f 95//38 92//38 91//38
f 103//39 101//39 99//39
f 99//40 95//40 91//40
f 97//41 100//41 93//41
f 101//9 97//9 95//9
f 104//42 105//42 103//42
f 104//8 99//8 100//8
f 106//43 100//43 102//43
f 105//9 102//9 101//9
f 110//44 113//44 109//44
f 112//45 107//45 111//45
f 113//46 107//46 109//46
f 127//9 131//9 128//9
f 129//8 133//8 130//8
f 131//47 134//47 135//47
f 120//44 122//44 119//44
f 120//46 114//46 110//46
f 122//48 116//48 117//48
f 124//45 126//45 123//45
f 124//46 108//46 112//46
f 126//48 118//48 115//48
f 118//45 130//45 134//45
f 116//44 128//44 132//44
f 135//47 130//47 133//47
f 132//49 133//49 129//49
f 128//49 135//49 132//49
f 137//9 139//9 136//9
f 137//45 107//45 108//45
f 138//48 108//48 110//48
f 139//44 110//44 109//44
f 136//46 109//46 107//46
f 141//8 143//8 140//8
f 141//44 113//44 114//44
f 142//48 114//48 112//48
f 143//45 112//45 111//45
f 140//46 111//46 113//46
f 145//8 147//8 144//8
f 145//46 112//46 114//46
f 146//50 114//50 117//50
f 147//48 117//48 118//48
f 144//51 118//51 112//51
f 149//9 151//9 148//9
f 149//46 110//46 108//46
f 150//51 108//51 115//51
f 151//48 115//48 116//48
f 148//50 116//50 110//50
f 152//9 154//9 155//9
f 153//48 116//48 121//48
f 154//44 121//44 120//44
f 155//46 120//46 110//46
f 152//52 110//52 116//52
f 157//8 159//8 156//8
f 157//46 114//46 119//46
f 158//44 119//44 122//44
f 159//48 122//48 117//48
f 156//52 117//52 114//52
f 160//8 162//8 163//8
f 161//48 118//48 125//48
f 162//45 125//45 124//45
f 163//46 124//46 112//46
f 160//53 112//53 118//53
f 165//9 167//9 164//9
f 165//46 108//46 123//46
f 166//45 123//45 126//45
f 167//48 126//48 115//48
f 164//53 115//53 108//53
f 171//1 174//1 170//1
f 173//2 168//2 172//2
f 174//54 168//54 170//54
f 188//9 192//9 189//9
f 190//8 194//8 191//8
f 192//55 195//55 196//55
f 181//1 183//1 180//1
f 181//54 175//54 171//54
f 183//3 177//3 178//3
f 185//2 187//2 184//2
f 185//54 169//54 173//54
f 187//3 179//3 176//3
f 179//2 191//2 195//2
f 177//1 189//1 193//1
f 196//55 191//55 194//55
f 193//56 194//56 190//56
f 189//56 196//56 193//56
f 198//9 200//9 197//9
f 198//2 168//2 169//2
f 199//3 169//3 171//3
f 200//1 171//1 170//1
f 197//54 170//54 168//54
f 202//8 204//8 201//8
f 202//1 174//1 175//1
f 203//3 175//3 173//3
f 204//2 173//2 172//2
f 201//54 172//54 174//54
f 206//8 208//8 205//8
f 206//54 173//54 175//54
f 207//57 175//57 178//57
f 208//3 178//3 179//3
f 205//58 179//58 173//58
f 210//9 212//9 209//9
f 210//54 171//54 169//54
f 211//58 169//58 176//58
f 212//3 176//3 177//3
f 209//57 177//57 171//57
f 213//9 215//9 216//9
f 214//3 177//3 182//3
f 215//1 182//1 181//1
f 216//54 181//54 171//54
f 213//59 171//59 177//59
f 218//8 220//8 217//8
f 218//54 175//54 180//54
f 219//1 180//1 183//1
f 220//3 183//3 178//3
f 217//59 178//59 175//59
f 221//8 223//8 224//8
f 222//3 179//3 186//3
f 223//2 186//2 185//2
f 224//54 185//54 173//54
f 221//60 173//60 179//60
f 226//9 228//9 225//9
f 226//54 169//54 184//54
f 227//2 184//2 187//2
f 228//3 187//3 176//3
f 225//60 176//60 169//60
f 1//1 51//1 89//1
f 4//2 54//2 90//2
f 3//3 53//3 5//3
f 53//3 55//3 5//3
f 56//3 54//3 6//3
f 54//3 4//3 6//3
f 3//3 5//3 6//3
f 52//4 16//4 14//4
f 8//5 10//5 64//5
f 6//6 8//6 60//6
f 55//7 59//7 7//7
f 6//8 5//8 7//8
f 24//9 28//9 26//9
f 9//8 11//8 12//8
f 7//10 59//10 63//10
f 8//11 7//11 9//11
f 18//8 25//8 27//8
f 12//3 11//3 67//3
f 26//12 28//12 27//12
f 10//2 12//2 68//2
f 63//1 67//1 11//1
f 13//13 17//13 19//13
f 51//14 1//14 13//14
f 2//61 14//61 13//61
f 52//62 51//62 15//62
f 20//17 26//17 25//17
f 16//12 20//12 18//12
f 13//8 14//8 18//8
f 15//9 19//9 20//9
f 22//18 24//18 23//18
f 17//8 18//8 22//8
f 19//9 23//9 24//9
f 17//13 21//13 23//13
f 22//18 27//18 28//18
f 30//2 90//2 52//2
f 29//1 89//1 53//1
f 29//8 30//8 2//8
f 31//9 39//9 40//9
f 32//9 31//9 33//9
f 35//8 36//8 38//8
f 33//19 37//19 38//19
f 32//20 34//20 38//20
f 32//21 36//21 35//21
f 39//22 41//22 45//22
f 31//23 35//23 41//23
f 37//24 33//24 40//24
f 35//8 37//8 42//8
f 44//25 43//25 45//25
f 39//9 43//9 44//9
f 40//26 44//26 46//26
f 42//8 46//8 45//8
f 89//1 51//1 47//1
f 90//2 54//2 50//2
f 50//3 54//3 58//3
f 54//3 56//3 58//3
f 55//3 53//3 57//3
f 53//3 49//3 57//3
f 50//3 58//3 57//3
f 72//27 74//27 52//27
f 64//5 66//5 62//5
f 60//6 62//6 58//6
f 61//7 59//7 55//7
f 58//9 62//9 61//9
f 84//8 86//8 82//8
f 70//9 69//9 65//9
f 61//10 65//10 63//10
f 62//28 66//28 65//28
f 80//9 85//9 83//9
f 68//3 67//3 69//3
f 85//29 86//29 84//29
f 68//2 70//2 66//2
f 69//1 67//1 63//1
f 77//30 75//30 71//30
f 51//31 73//31 71//31
f 71//32 72//32 48//32
f 52//33 74//33 73//33
f 83//34 84//34 78//34
f 76//29 78//29 74//29
f 71//9 75//9 76//9
f 78//8 77//8 73//8
f 81//35 82//35 80//35
f 79//9 80//9 76//9
f 82//8 81//8 77//8
f 81//30 79//30 75//30
f 86//35 85//35 80//35
f 52//2 90//2 88//2
f 53//1 89//1 87//1
f 48//9 88//9 87//9
f 93//8 100//8 99//8
f 94//8 93//8 91//8
f 87//9 88//9 50//9
f 4//8 30//8 29//8
f 97//9 98//9 96//9
f 98//36 97//36 93//36
f 92//37 96//37 98//37
f 95//38 96//38 92//38
f 103//39 105//39 101//39
f 99//40 101//40 95//40
f 97//41 102//41 100//41
f 101//9 102//9 97//9
f 104//42 106//42 105//42
f 104//8 103//8 99//8
f 106//43 104//43 100//43
f 105//9 106//9 102//9
f 110//44 114//44 113//44
f 112//45 108//45 107//45
f 113//46 111//46 107//46
f 128//9 116//9 115//9
f 115//9 127//9 128//9
f 130//8 118//8 117//8
f 117//8 129//8 130//8
f 131//47 127//47 134//47
f 120//44 121//44 122//44
f 120//46 119//46 114//46
f 122//48 121//48 116//48
f 124//45 125//45 126//45
f 124//46 123//46 108//46
f 126//48 125//48 118//48
f 127//45 115//45 134//45
f 115//45 118//45 134//45
f 129//44 117//44 132//44
f 117//44 116//44 132//44
f 135//47 134//47 130//47
f 132//49 135//49 133//49
f 128//49 131//49 135//49
f 137//9 138//9 139//9
f 137//45 136//45 107//45
f 138//48 137//48 108//48
f 139//44 138//44 110//44
f 136//46 139//46 109//46
f 141//8 142//8 143//8
f 141//44 140//44 113//44
f 142//48 141//48 114//48
f 143//45 142//45 112//45
f 140//46 143//46 111//46
f 145//8 146//8 147//8
f 145//46 144//46 112//46
f 146//50 145//50 114//50
f 147//48 146//48 117//48
f 144//51 147//51 118//51
f 149//9 150//9 151//9
f 149//46 148//46 110//46
f 150//51 149//51 108//51
f 151//48 150//48 115//48
f 148//50 151//50 116//50
f 152//9 153//9 154//9
f 153//48 152//48 116//48
f 154//44 153//44 121//44
f 155//46 154//46 120//46
f 152//52 155//52 110//52
f 157//8 158//8 159//8
f 157//46 156//46 114//46
f 158//44 157//44 119//44
f 159//48 158//48 122//48
f 156//52 159//52 117//52
f 160//8 161//8 162//8
f 161//48 160//48 118//48
f 162//45 161//45 125//45
f 163//46 162//46 124//46
f 160//53 163//53 112//53
f 165//9 166//9 167//9
f 165//46 164//46 108//46
f 166//45 165//45 123//45
f 167//48 166//48 126//48
f 164//53 167//53 115//53
f 171//1 175//1 174//1
f 173//2 169//2 168//2
f 174//54 172//54 168//54
f 189//9 177//9 176//9
f 176//9 188//9 189//9
f 191//8 179//8 178//8
f 178//8 190//8 191//8
f 192//55 188//55 195//55
f 181//1 182//1 183//1
f 181//54 180//54 175//54
f 183//3 182//3 177//3
f 185//2 186//2 187//2
f 185//54 184//54 169//54
f 187//3 186//3 179//3
f 188//2 176//2 195//2
f 176//2 179//2 195//2
f 190//1 178//1 193//1
f 178//1 177//1 193//1
f 196//55 195//55 191//55
f 193//56 196//56 194//56
f 189//56 192//56 196//56
f 198//9 199//9 200//9
f 198//2 197//2 168//2
f 199//3 198//3 169//3
f 200//1 199//1 171//1
f 197//54 200//54 170//54
f 202//8 203//8 204//8
f 202//1 201//1 174//1
f 203//3 202//3 175//3
f 204//2 203//2 173//2
f 201//54 204//54 172//54
f 206//8 207//8 208//8
f 206//54 205//54 173//54
f 207//57 206//57 175//57
f 208//3 207//3 178//3
f 205//58 208//58 179//58
f 210//9 211//9 212//9
f 210//54 209//54 171//54
f 211//58 210//58 169//58
f 212//3 211//3 176//3
f 209//57 212//57 177//57
f 213//9 214//9 215//9
f 214//3 213//3 177//3
f 215//1 214//1 182//1
f 216//54 215//54 181//54
f 213//59 216//59 171//59
f 218//8 219//8 220//8
f 218//54 217//54 175//54
f 219//1 218//1 180//1
f 220//3 219//3 183//3
f 217//59 220//59 178//59
f 221//8 222//8 223//8
f 222//3 221//3 179//3
f 223//2 222//2 186//2
f 224//54 223//54 185//54
f 221//60 224//60 173//60
f 226//9 227//9 228//9
f 226//54 225//54 169//54
f 227//2 226//2 184//2
f 228//3 227//3 187//3
f 225//60 228//60 176//60
