# Blender v2.79 (sub 0) OBJ File: 'FastReloadTower.blend'
# www.blender.org
mtllib FastReloadTower.mtl
o Cube
v 0.344299 0.000000 -0.344299
v 0.344299 0.000000 0.344299
v -0.344299 0.000000 0.344299
v -0.344299 0.000000 -0.344299
v 0.344299 1.245651 -0.344298
v 0.344298 1.245651 0.344299
v -0.344299 1.245651 0.344299
v -0.344299 1.245651 -0.344299
v 0.755757 1.366347 -0.755756
v 0.755756 1.366347 0.755757
v -0.755756 1.366347 -0.755756
v -0.755757 1.366347 0.755756
v 0.755757 1.758608 -0.755756
v 0.755756 1.758608 0.755757
v -0.755756 1.758608 -0.755756
v -0.755757 1.758608 0.755756
v 0.755756 1.758608 0.000000
v 0.000000 1.758608 -0.755756
v -0.000000 1.758608 0.755756
v -0.755756 1.758608 -0.000000
v -0.000000 1.758608 0.000000
v 0.755756 1.758608 0.377879
v -0.377878 1.758608 -0.755756
v -0.377878 1.758608 0.755756
v -0.755756 1.758608 -0.377878
v 0.755757 1.758608 -0.377878
v 0.377879 1.758608 -0.755756
v 0.377878 1.758608 0.755757
v -0.755757 1.758608 0.377878
v -0.000000 1.758608 0.377878
v 0.000000 1.758608 -0.377878
v 0.377878 1.758608 0.000000
v -0.377878 1.758608 -0.000000
v -0.377878 1.758608 -0.377878
v 0.377878 1.758608 -0.377878
v 0.377878 1.758608 0.377878
v -0.377878 1.758608 0.377878
v 0.755756 1.758608 0.566818
v -0.566817 1.758608 -0.755756
v -0.566818 1.758608 0.755756
v -0.755756 1.758608 -0.566817
v 0.755756 1.758608 -0.188939
v 0.188939 1.758608 -0.755756
v 0.188939 1.758608 0.755757
v -0.755756 1.758608 0.188939
v -0.000000 1.758608 0.566817
v 0.000000 1.758608 -0.188939
v 0.566817 1.758608 0.000000
v -0.188939 1.758608 0.000000
v 0.755756 1.758608 0.188939
v -0.188939 1.758608 -0.755756
v -0.188939 1.758608 0.755756
v -0.755756 1.758608 -0.188939
v 0.755757 1.758608 -0.566817
v 0.566818 1.758608 -0.755756
v 0.566817 1.758608 0.755757
v -0.755757 1.758608 0.566817
v -0.000000 1.758608 0.188939
v 0.000000 1.758608 -0.566817
v 0.188939 1.758608 0.000000
v -0.566817 1.758608 -0.000000
v -0.377878 1.758608 -0.188939
v -0.377878 1.758608 -0.566817
v -0.188939 1.758608 -0.377878
v -0.566817 1.758608 -0.377878
v 0.377878 1.758608 -0.188939
v 0.377878 1.758608 -0.566817
v 0.566817 1.758608 -0.377878
v 0.188939 1.758608 -0.377878
v 0.377878 1.758608 0.566818
v 0.377878 1.758608 0.188939
v 0.566817 1.758608 0.377879
v 0.188939 1.758608 0.377878
v -0.377878 1.758608 0.566817
v -0.377878 1.758608 0.188939
v -0.188939 1.758608 0.377878
v -0.566817 1.758608 0.377878
v -0.566817 1.758608 0.188939
v -0.188939 1.758608 0.188939
v -0.188939 1.758608 0.566817
v 0.188939 1.758608 0.188939
v 0.566817 1.758608 0.188939
v 0.566817 1.758608 0.566818
v 0.188939 1.758608 -0.566817
v 0.566818 1.758608 -0.566817
v 0.566817 1.758608 -0.188939
v -0.566817 1.758608 -0.566817
v -0.188939 1.758608 -0.566817
v -0.188939 1.758608 -0.188939
v -0.566817 1.758608 -0.188939
v 0.188939 1.758608 -0.188939
v 0.188939 1.758608 0.566817
v -0.566818 1.758608 0.566817
v 0.755756 1.997486 0.566818
v 0.755756 1.997486 0.755757
v -0.566817 1.997486 -0.755756
v -0.755756 1.997486 -0.755756
v -0.566818 1.997486 0.755756
v -0.755757 1.997486 0.755756
v -0.755756 1.997486 -0.566817
v 0.755756 1.997486 -0.188939
v 0.755756 1.997486 0.000000
v 0.188939 1.997486 -0.755756
v 0.000000 1.997486 -0.755756
v 0.188939 1.997486 0.755757
v -0.000000 1.997486 0.755756
v -0.755756 1.997486 0.188939
v -0.755756 1.997486 -0.000000
v -0.000000 1.997486 0.566817
v 0.566817 1.997486 0.000000
v 0.755757 1.997486 -0.566817
v 0.755757 1.997486 -0.377878
v 0.566818 1.997486 -0.755756
v 0.377879 1.997486 -0.755756
v 0.566817 1.997486 0.755757
v 0.377878 1.997486 0.755757
v -0.755757 1.997486 0.566817
v -0.755757 1.997486 0.377878
v 0.566817 1.997486 -0.377878
v 0.377878 1.997486 0.566818
v 0.566817 1.997486 0.377879
v 0.755756 1.997486 0.377879
v -0.377878 1.997486 0.566817
v -0.377878 1.997486 0.755756
v -0.377878 1.997486 -0.755756
v -0.755756 1.997486 -0.377878
v 0.755756 1.997486 0.188939
v -0.188939 1.997486 -0.755756
v -0.188939 1.997486 0.755756
v -0.755756 1.997486 -0.188939
v 0.755757 1.997486 -0.755756
v 0.000000 1.997486 -0.566817
v -0.566817 1.997486 -0.000000
v -0.377878 1.997486 -0.566817
v -0.566817 1.997486 -0.377878
v 0.377878 1.997486 -0.566817
v -0.566817 1.997486 0.377878
v -0.566817 1.997486 0.188939
v -0.188939 1.997486 0.566817
v 0.566817 1.997486 0.188939
v 0.566817 1.997486 0.566818
v 0.188939 1.997486 -0.566817
v 0.566818 1.997486 -0.566817
v 0.566817 1.997486 -0.188939
v -0.566817 1.997486 -0.566817
v -0.188939 1.997486 -0.566817
v -0.566817 1.997486 -0.188939
v 0.188939 1.997486 0.566817
v -0.566818 1.997486 0.566817
vn 0.0000 -1.0000 0.0000
vn -0.2815 -0.9596 0.0000
vn 1.0000 -0.0000 0.0000
vn -0.0000 -0.0000 1.0000
vn -1.0000 0.0000 -0.0000
vn 0.0000 0.0000 -1.0000
vn 0.0000 -0.9596 -0.2815
vn -0.0000 -0.9596 0.2815
vn 0.2815 -0.9596 0.0000
vn 0.0000 1.0000 -0.0000
usemtl Material
s off
f 2//1 4//1 1//1
f 8//2 12//2 11//2
f 5//3 2//3 1//3
f 6//4 3//4 2//4
f 7//5 4//5 3//5
f 1//6 8//6 5//6
f 18//6 43//6 9//6
f 8//7 9//7 5//7
f 6//8 12//8 7//8
f 5//9 10//9 6//9
f 55//6 131//6 13//6
f 19//4 52//4 12//4
f 17//3 50//3 10//3
f 20//5 53//5 11//5
f 78//4 107//4 45//4
f 47//10 60//10 91//10
f 42//3 102//3 17//3
f 89//10 33//10 49//10
f 63//10 64//10 88//10
f 26//4 119//4 68//4
f 66//10 48//10 86//10
f 67//10 68//10 85//10
f 59//10 69//10 84//10
f 13//3 111//3 54//3
f 71//10 72//10 82//10
f 58//10 73//10 81//10
f 74//10 52//10 80//10
f 75//10 76//10 79//10
f 78//10 29//10 77//10
f 78//10 37//10 75//10
f 33//10 78//10 75//10
f 68//5 143//5 85//5
f 58//10 76//10 30//10
f 49//10 58//10 21//10
f 33//10 79//10 49//10
f 20//5 130//5 53//5
f 30//10 80//10 46//10
f 37//10 80//10 76//10
f 81//10 36//10 71//10
f 60//10 71//10 32//10
f 21//10 81//10 60//10
f 82//10 22//10 50//10
f 61//3 138//3 78//3
f 32//10 82//10 48//10
f 84//4 132//4 59//4
f 19//4 129//4 52//4
f 36//10 83//10 72//10
f 84//10 35//10 67//10
f 43//10 67//10 27//10
f 51//6 104//6 18//6
f 29//6 137//6 77//6
f 43//3 142//3 84//3
f 53//6 147//6 90//6
f 17//3 127//3 50//3
f 68//10 42//10 26//10
f 35//10 86//10 68//10
f 63//10 65//10 34//10
f 41//5 97//5 15//5
f 70//6 141//6 83//6
f 88//10 31//10 59//10
f 40//4 99//4 16//4
f 23//10 88//10 51//10
f 47//10 49//10 21//10
f 64//10 47//10 31//10
f 64//10 62//10 89//10
f 62//10 61//10 33//10
f 34//10 90//10 62//10
f 25//10 90//10 65//10
f 91//10 32//10 66//10
f 69//10 66//10 35//10
f 31//10 91//10 69//10
f 92//10 28//10 70//10
f 73//10 70//10 36//10
f 73//10 46//10 92//10
f 90//3 133//3 61//3
f 77//10 74//10 37//10
f 15//6 96//6 39//6
f 149//10 99//10 98//10
f 109//10 105//10 148//10
f 130//10 133//10 147//10
f 145//10 126//10 135//10
f 120//10 115//10 141//10
f 108//10 138//10 133//10
f 139//10 106//10 109//10
f 110//10 127//10 102//10
f 141//10 95//10 94//10
f 121//10 94//10 122//10
f 104//10 142//10 103//10
f 143//10 112//10 111//10
f 113//10 111//10 131//10
f 114//10 143//10 113//10
f 144//10 102//10 101//10
f 125//10 145//10 134//10
f 97//10 145//10 96//10
f 128//10 132//10 104//10
f 149//10 124//10 123//10
f 137//10 117//10 149//10
f 92//3 105//3 44//3
f 18//6 103//6 43//6
f 14//4 115//4 56//4
f 28//5 120//5 70//5
f 44//4 106//4 19//4
f 85//4 136//4 67//4
f 16//5 117//5 57//5
f 45//5 108//5 20//5
f 48//5 144//5 86//5
f 72//6 122//6 22//6
f 46//6 148//6 92//6
f 86//6 101//6 42//6
f 52//5 139//5 80//5
f 74//3 124//3 24//3
f 77//3 149//3 93//3
f 93//6 123//6 74//6
f 87//3 135//3 65//3
f 80//6 109//6 46//6
f 23//3 134//3 63//3
f 63//4 145//4 87//4
f 22//3 94//3 38//3
f 65//4 126//4 25//4
f 39//6 125//6 23//6
f 24//4 98//4 40//4
f 54//3 112//3 26//3
f 88//5 128//5 51//5
f 67//5 114//5 27//5
f 25//5 100//5 41//5
f 27//6 113//6 55//6
f 59//4 146//4 88//4
f 56//4 116//4 28//4
f 82//5 110//5 48//5
f 57//5 118//5 29//5
f 50//4 140//4 82//4
f 38//3 95//3 14//3
f 83//5 121//5 72//5
f 2//1 3//1 4//1
f 8//2 7//2 12//2
f 5//3 6//3 2//3
f 6//4 7//4 3//4
f 7//5 8//5 4//5
f 1//6 4//6 8//6
f 13//6 9//6 55//6
f 9//6 11//6 18//6
f 55//6 9//6 27//6
f 11//6 15//6 39//6
f 23//6 51//6 11//6
f 51//6 18//6 11//6
f 11//6 39//6 23//6
f 27//6 9//6 43//6
f 8//7 11//7 9//7
f 6//8 10//8 12//8
f 5//9 9//9 10//9
f 55//6 113//6 131//6
f 16//4 12//4 40//4
f 12//4 10//4 19//4
f 40//4 12//4 24//4
f 10//4 14//4 56//4
f 28//4 44//4 10//4
f 44//4 19//4 10//4
f 10//4 56//4 28//4
f 24//4 12//4 52//4
f 14//3 10//3 38//3
f 10//3 9//3 17//3
f 38//3 10//3 22//3
f 9//3 13//3 54//3
f 26//3 42//3 9//3
f 42//3 17//3 9//3
f 9//3 54//3 26//3
f 22//3 10//3 50//3
f 15//5 11//5 41//5
f 11//5 12//5 20//5
f 41//5 11//5 25//5
f 12//5 16//5 57//5
f 29//5 45//5 12//5
f 45//5 20//5 12//5
f 12//5 57//5 29//5
f 25//5 11//5 53//5
f 78//4 138//4 107//4
f 47//10 21//10 60//10
f 42//3 101//3 102//3
f 89//10 62//10 33//10
f 63//10 34//10 64//10
f 26//4 112//4 119//4
f 66//10 32//10 48//10
f 67//10 35//10 68//10
f 59//10 31//10 69//10
f 13//3 131//3 111//3
f 71//10 36//10 72//10
f 58//10 30//10 73//10
f 74//10 24//10 52//10
f 75//10 37//10 76//10
f 78//10 45//10 29//10
f 78//10 77//10 37//10
f 33//10 61//10 78//10
f 68//5 119//5 143//5
f 58//10 79//10 76//10
f 49//10 79//10 58//10
f 33//10 75//10 79//10
f 20//5 108//5 130//5
f 30//10 76//10 80//10
f 37//10 74//10 80//10
f 81//10 73//10 36//10
f 60//10 81//10 71//10
f 21//10 58//10 81//10
f 82//10 72//10 22//10
f 61//3 133//3 138//3
f 32//10 71//10 82//10
f 84//4 142//4 132//4
f 19//4 106//4 129//4
f 36//10 70//10 83//10
f 84//10 69//10 35//10
f 43//10 84//10 67//10
f 51//6 128//6 104//6
f 29//6 118//6 137//6
f 43//3 103//3 142//3
f 53//6 130//6 147//6
f 17//3 102//3 127//3
f 68//10 86//10 42//10
f 35//10 66//10 86//10
f 63//10 87//10 65//10
f 41//5 100//5 97//5
f 70//6 120//6 141//6
f 88//10 64//10 31//10
f 40//4 98//4 99//4
f 23//10 63//10 88//10
f 47//10 89//10 49//10
f 64//10 89//10 47//10
f 64//10 34//10 62//10
f 62//10 90//10 61//10
f 34//10 65//10 90//10
f 25//10 53//10 90//10
f 91//10 60//10 32//10
f 69//10 91//10 66//10
f 31//10 47//10 91//10
f 92//10 44//10 28//10
f 73//10 92//10 70//10
f 73//10 30//10 46//10
f 90//3 147//3 133//3
f 77//10 93//10 74//10
f 15//6 97//6 96//6
f 149//10 117//10 99//10
f 109//10 106//10 105//10
f 130//10 108//10 133//10
f 145//10 100//10 126//10
f 120//10 116//10 115//10
f 108//10 107//10 138//10
f 139//10 129//10 106//10
f 110//10 140//10 127//10
f 141//10 115//10 95//10
f 121//10 141//10 94//10
f 104//10 132//10 142//10
f 143//10 119//10 112//10
f 113//10 143//10 111//10
f 114//10 136//10 143//10
f 144//10 110//10 102//10
f 125//10 96//10 145//10
f 97//10 100//10 145//10
f 128//10 146//10 132//10
f 149//10 98//10 124//10
f 137//10 118//10 117//10
f 92//3 148//3 105//3
f 18//6 104//6 103//6
f 14//4 95//4 115//4
f 28//5 116//5 120//5
f 44//4 105//4 106//4
f 85//4 143//4 136//4
f 16//5 99//5 117//5
f 45//5 107//5 108//5
f 48//5 110//5 144//5
f 72//6 121//6 122//6
f 46//6 109//6 148//6
f 86//6 144//6 101//6
f 52//5 129//5 139//5
f 74//3 123//3 124//3
f 77//3 137//3 149//3
f 93//6 149//6 123//6
f 87//3 145//3 135//3
f 80//6 139//6 109//6
f 23//3 125//3 134//3
f 63//4 134//4 145//4
f 22//3 122//3 94//3
f 65//4 135//4 126//4
f 39//6 96//6 125//6
f 24//4 124//4 98//4
f 54//3 111//3 112//3
f 88//5 146//5 128//5
f 67//5 136//5 114//5
f 25//5 126//5 100//5
f 27//6 114//6 113//6
f 59//4 132//4 146//4
f 56//4 115//4 116//4
f 82//5 140//5 110//5
f 57//5 117//5 118//5
f 50//4 127//4 140//4
f 38//3 94//3 95//3
f 83//5 141//5 121//5
