# Blender v2.79 (sub 0) OBJ File: 'StrongTower.blend'
# www.blender.org
mtllib StrongTower.mtl
o Cylinder
v 0.000000 0.000000 -0.358852
v 0.000000 1.215478 -0.358852
v 0.070009 0.000000 -0.351957
v 0.070009 1.215478 -0.351957
v 0.137327 0.000000 -0.331536
v 0.137327 1.215478 -0.331536
v 0.199368 0.000000 -0.298375
v 0.199368 1.215478 -0.298375
v 0.253747 0.000000 -0.253747
v 0.253747 1.215478 -0.253747
v 0.298375 0.000000 -0.199368
v 0.298375 1.215478 -0.199368
v 0.331536 0.000000 -0.137327
v 0.331536 1.215478 -0.137327
v 0.351957 0.000000 -0.070009
v 0.351957 1.215478 -0.070009
v 0.358852 0.000000 -0.000000
v 0.358852 1.215478 -0.000000
v 0.351957 0.000000 0.070009
v 0.351957 1.215478 0.070009
v 0.331536 0.000000 0.137327
v 0.331536 1.215478 0.137327
v 0.298375 0.000000 0.199368
v 0.298375 1.215478 0.199368
v 0.253747 0.000000 0.253747
v 0.253747 1.215478 0.253747
v 0.199368 0.000000 0.298375
v 0.199368 1.215478 0.298375
v 0.137327 0.000000 0.331536
v 0.137327 1.215478 0.331536
v 0.070009 0.000000 0.351957
v 0.070009 1.215478 0.351957
v -0.000000 0.000000 0.358852
v -0.000000 1.215478 0.358852
v -0.070009 0.000000 0.351957
v -0.070009 1.215478 0.351957
v -0.137327 0.000000 0.331536
v -0.137327 1.215478 0.331536
v -0.199368 0.000000 0.298375
v -0.199368 1.215478 0.298375
v -0.253747 0.000000 0.253747
v -0.253747 1.215478 0.253747
v -0.298375 0.000000 0.199367
v -0.298375 1.215478 0.199367
v -0.331536 0.000000 0.137327
v -0.331536 1.215478 0.137327
v -0.351957 0.000000 0.070008
v -0.351957 1.215478 0.070008
v -0.358852 0.000000 -0.000000
v -0.358852 1.215478 -0.000000
v -0.351957 0.000000 -0.070009
v -0.351957 1.215478 -0.070009
v -0.331536 0.000000 -0.137327
v -0.331536 1.215478 -0.137327
v -0.298375 0.000000 -0.199368
v -0.298375 1.215478 -0.199368
v -0.253747 0.000000 -0.253747
v -0.253747 1.215478 -0.253747
v -0.199367 0.000000 -0.298375
v -0.199367 1.215478 -0.298375
v -0.137326 0.000000 -0.331537
v -0.137326 1.215478 -0.331537
v -0.070008 0.000000 -0.351957
v -0.070008 1.215478 -0.351957
v 0.122444 1.713347 -0.615570
v -0.000000 1.713347 -0.627630
v 0.240184 1.713347 -0.579854
v 0.348692 1.713347 -0.521855
v 0.443801 1.713347 -0.443801
v 0.521855 1.713347 -0.348692
v 0.579854 1.713347 -0.240183
v 0.615570 1.713347 -0.122444
v 0.627630 1.713347 0.000000
v 0.615570 1.713347 0.122445
v 0.579854 1.713347 0.240184
v 0.521855 1.713347 0.348693
v 0.443801 1.713347 0.443802
v 0.348692 1.713347 0.521855
v 0.240183 1.713347 0.579855
v 0.122444 1.713347 0.615570
v -0.000000 1.713347 0.627630
v -0.122445 1.713347 0.615570
v -0.240184 1.713347 0.579854
v -0.348693 1.713347 0.521855
v -0.443802 1.713347 0.443801
v -0.521856 1.713347 0.348692
v -0.579855 1.713347 0.240183
v -0.615570 1.713347 0.122444
v -0.627630 1.713347 -0.000000
v -0.615570 1.713347 -0.122445
v -0.579854 1.713347 -0.240184
v -0.521855 1.713347 -0.348693
v -0.443801 1.713347 -0.443802
v -0.348692 1.713347 -0.521856
v -0.240183 1.713347 -0.579855
v -0.122444 1.713347 -0.615570
v 0.153710 1.713347 -0.772753
v -0.000000 1.713347 -0.787892
v 0.301513 1.713347 -0.727917
v 0.437730 1.713347 -0.655108
v 0.557124 1.713347 -0.557124
v 0.655109 1.713347 -0.437729
v 0.727918 1.713347 -0.301513
v 0.772753 1.713347 -0.153710
v 0.787892 1.713347 0.000000
v 0.772753 1.713347 0.153710
v 0.727918 1.713347 0.301513
v 0.655109 1.713347 0.437730
v 0.557124 1.713347 0.557124
v 0.437729 1.713347 0.655109
v 0.301513 1.713347 0.727918
v 0.153710 1.713347 0.772753
v -0.000000 1.713347 0.787893
v -0.153711 1.713347 0.772753
v -0.301514 1.713347 0.727918
v -0.437730 1.713347 0.655109
v -0.557124 1.713347 0.557124
v -0.655109 1.713347 0.437729
v -0.727918 1.713347 0.301513
v -0.772754 1.713347 0.153710
v -0.787893 1.713347 -0.000001
v -0.772753 1.713347 -0.153711
v -0.727917 1.713347 -0.301514
v -0.655108 1.713347 -0.437730
v -0.557123 1.713347 -0.557125
v -0.437729 1.713347 -0.655109
v -0.301512 1.713347 -0.727918
v -0.153709 1.713347 -0.772753
v 0.301513 1.993965 -0.727917
v 0.153710 1.993965 -0.772753
v 0.557124 1.993965 -0.557124
v 0.437730 1.993965 -0.655108
v 0.727918 1.993965 -0.301513
v 0.655109 1.993965 -0.437729
v 0.787892 1.993965 0.000000
v 0.772753 1.993965 -0.153710
v 0.727918 1.993965 0.301513
v 0.772753 1.993965 0.153710
v 0.557124 1.993965 0.557124
v 0.655109 1.993965 0.437730
v 0.301513 1.993965 0.727918
v 0.437729 1.993965 0.655109
v -0.000000 1.993965 0.787893
v 0.153710 1.993965 0.772753
v -0.301514 1.993965 0.727918
v -0.153711 1.993965 0.772753
v -0.557124 1.993965 0.557124
v -0.437730 1.993965 0.655109
v -0.727918 1.993965 0.301513
v -0.655109 1.993965 0.437729
v -0.787893 1.993965 -0.000001
v -0.772754 1.993965 0.153710
v -0.727917 1.993965 -0.301514
v -0.772753 1.993965 -0.153711
v -0.557123 1.993965 -0.557125
v -0.655108 1.993965 -0.437730
v -0.301512 1.993965 -0.727918
v -0.437729 1.993965 -0.655109
v -0.000000 1.993965 -0.787892
v -0.153709 1.993965 -0.772753
v 0.240184 1.993965 -0.579854
v 0.122444 1.993965 -0.615570
v 0.443801 1.993965 -0.443801
v 0.348692 1.993965 -0.521855
v 0.579854 1.993965 -0.240183
v 0.521855 1.993965 -0.348692
v 0.627630 1.993965 0.000000
v 0.615570 1.993965 -0.122444
v 0.579854 1.993965 0.240184
v 0.615570 1.993965 0.122445
v 0.443801 1.993965 0.443802
v 0.521855 1.993965 0.348693
v 0.240183 1.993965 0.579855
v 0.348692 1.993965 0.521855
v -0.000000 1.993965 0.627630
v 0.122444 1.993965 0.615570
v -0.240184 1.993965 0.579854
v -0.122445 1.993965 0.615570
v -0.443802 1.993965 0.443801
v -0.348693 1.993965 0.521855
v -0.579855 1.993965 0.240183
v -0.521856 1.993965 0.348692
v -0.627630 1.993965 -0.000000
v -0.615570 1.993965 0.122444
v -0.579854 1.993965 -0.240184
v -0.615570 1.993965 -0.122445
v -0.443801 1.993965 -0.443802
v -0.521855 1.993965 -0.348693
v -0.240183 1.993965 -0.579855
v -0.348692 1.993965 -0.521856
v -0.000000 1.993965 -0.627630
v -0.122444 1.993965 -0.615570
vn 0.0980 0.0000 -0.9952
vn 0.2903 0.0000 -0.9569
vn 0.4714 0.0000 -0.8819
vn 0.6344 0.0000 -0.7730
vn 0.7730 0.0000 -0.6344
vn 0.8819 0.0000 -0.4714
vn 0.9569 0.0000 -0.2903
vn 0.9952 0.0000 -0.0980
vn 0.9952 0.0000 0.0980
vn 0.9569 0.0000 0.2903
vn 0.8819 0.0000 0.4714
vn 0.7730 0.0000 0.6344
vn 0.6344 0.0000 0.7730
vn 0.4714 0.0000 0.8819
vn 0.2903 0.0000 0.9569
vn 0.0980 0.0000 0.9952
vn -0.0980 0.0000 0.9952
vn -0.2903 0.0000 0.9569
vn -0.4714 0.0000 0.8819
vn -0.6344 0.0000 0.7730
vn -0.7730 0.0000 0.6344
vn -0.8819 0.0000 0.4714
vn -0.9569 0.0000 0.2903
vn -0.9952 0.0000 0.0980
vn -0.9952 0.0000 -0.0980
vn -0.9569 0.0000 -0.2903
vn -0.8819 0.0000 -0.4714
vn -0.7730 0.0000 -0.6344
vn -0.6344 0.0000 -0.7730
vn -0.4714 0.0000 -0.8819
vn 0.3578 -0.6510 -0.6695
vn -0.2903 0.0000 -0.9569
vn -0.0980 0.0000 -0.9952
vn 0.0000 -1.0000 0.0000
vn 0.0000 1.0000 0.0000
vn 0.5868 -0.6510 0.4816
vn -0.5868 -0.6510 0.4816
vn -0.3578 -0.6510 -0.6695
vn 0.7554 -0.6510 -0.0744
vn -0.0744 -0.6510 0.7554
vn -0.7264 -0.6510 -0.2204
vn 0.4816 -0.6510 -0.5868
vn 0.4816 -0.6510 0.5868
vn -0.6695 -0.6510 0.3578
vn -0.2203 -0.6510 -0.7264
vn 0.7554 -0.6510 0.0744
vn -0.2204 -0.6510 0.7264
vn -0.6695 -0.6510 -0.3578
vn 0.5868 -0.6510 -0.4816
vn 0.3578 -0.6510 0.6695
vn -0.7264 -0.6510 0.2204
vn 0.0744 -0.6510 -0.7554
vn -0.0744 -0.6510 -0.7554
vn 0.7264 -0.6510 0.2203
vn -0.3578 -0.6510 0.6695
vn -0.5868 -0.6510 -0.4816
vn 0.6695 -0.6510 -0.3578
vn 0.2204 -0.6510 0.7264
vn -0.7554 -0.6510 0.0744
vn 0.2203 -0.6510 -0.7264
vn 0.6695 -0.6510 0.3578
vn -0.4816 -0.6510 0.5868
vn -0.4816 -0.6510 -0.5868
vn 0.7264 -0.6510 -0.2204
vn 0.0744 -0.6510 0.7554
vn -0.7554 -0.6510 -0.0744
vn -0.9808 0.0000 0.1951
vn 0.7071 0.0000 0.7071
vn 0.9239 0.0000 -0.3827
vn -0.8315 0.0000 -0.5556
vn -0.8315 0.0000 0.5556
vn 0.9239 0.0000 0.3827
vn 0.7071 0.0000 -0.7071
vn -0.9808 0.0000 -0.1951
vn -0.5556 0.0000 0.8315
vn 1.0000 0.0000 0.0000
vn 0.3827 0.0000 -0.9239
vn -0.5556 0.0000 -0.8315
vn 0.3827 0.0000 0.9239
vn -0.1951 0.0000 -0.9808
vn 0.0000 0.0000 1.0000
vn 0.1951 0.0000 -0.9808
vn -0.3827 0.0000 0.9239
vn 0.5556 0.0000 -0.8315
vn -0.7071 0.0000 0.7071
vn 0.8315 0.0000 -0.5556
vn -0.9239 0.0000 0.3827
vn 0.9808 0.0000 -0.1951
vn -1.0000 0.0000 -0.0000
vn 0.9808 0.0000 0.1951
vn -0.9239 0.0000 -0.3827
vn 0.8315 0.0000 0.5556
vn -0.7071 0.0000 -0.7071
vn 0.5556 0.0000 0.8315
vn -0.3827 0.0000 -0.9239
vn 0.1951 0.0000 0.9808
vn 0.0000 0.0000 -1.0000
vn -0.1951 0.0000 0.9808
vn -0.7264 -0.6510 0.2203
vn 0.7264 -0.6510 0.2204
vn 0.2204 -0.6510 -0.7264
vn 0.7264 -0.6510 -0.2203
usemtl Material.001
s off
f 2//1 3//1 1//1
f 4//2 5//2 3//2
f 6//3 7//3 5//3
f 8//4 9//4 7//4
f 10//5 11//5 9//5
f 12//6 13//6 11//6
f 14//7 15//7 13//7
f 16//8 17//8 15//8
f 18//9 19//9 17//9
f 20//10 21//10 19//10
f 22//11 23//11 21//11
f 24//12 25//12 23//12
f 26//13 27//13 25//13
f 28//14 29//14 27//14
f 30//15 31//15 29//15
f 32//16 33//16 31//16
f 34//17 35//17 33//17
f 36//18 37//18 35//18
f 38//19 39//19 37//19
f 40//20 41//20 39//20
f 42//21 43//21 41//21
f 44//22 45//22 43//22
f 46//23 47//23 45//23
f 48//24 49//24 47//24
f 50//25 51//25 49//25
f 52//26 53//26 51//26
f 54//27 55//27 53//27
f 56//28 57//28 55//28
f 58//29 59//29 57//29
f 60//30 61//30 59//30
f 8//31 99//31 100//31
f 62//32 63//32 61//32
f 64//33 1//33 63//33
f 15//34 31//34 47//34
f 67//35 91//35 83//35
f 24//36 109//36 26//36
f 42//37 118//37 44//37
f 60//38 127//38 62//38
f 18//39 104//39 105//39
f 36//40 113//40 114//40
f 52//41 123//41 54//41
f 10//42 100//42 101//42
f 28//43 109//43 110//43
f 46//44 118//44 119//44
f 62//45 128//45 64//45
f 20//46 105//46 106//46
f 36//47 115//47 38//47
f 54//48 124//48 56//48
f 10//49 102//49 12//49
f 28//50 111//50 30//50
f 46//51 120//51 48//51
f 2//52 97//52 4//52
f 64//53 98//53 2//53
f 20//54 107//54 22//54
f 38//55 116//55 40//55
f 56//56 125//56 58//56
f 14//57 102//57 103//57
f 30//58 112//58 32//58
f 48//59 121//59 50//59
f 4//60 99//60 6//60
f 24//61 107//61 108//61
f 40//62 117//62 42//62
f 58//63 126//63 60//63
f 16//64 103//64 104//64
f 34//65 112//65 113//65
f 50//66 122//66 52//66
f 65//35 98//35 66//35
f 96//67 160//67 128//67
f 68//35 99//35 67//35
f 101//68 163//68 69//68
f 70//35 101//35 69//35
f 127//69 189//69 95//69
f 72//35 103//35 71//35
f 118//22 149//22 119//22
f 74//35 105//35 73//35
f 75//26 170//26 74//26
f 76//35 107//35 75//35
f 68//70 132//70 100//70
f 78//35 109//35 77//35
f 94//71 158//71 126//71
f 79//35 112//35 111//35
f 99//72 161//72 67//72
f 82//35 113//35 81//35
f 125//73 187//73 93//73
f 83//35 116//35 115//35
f 116//20 147//20 117//20
f 85//35 118//35 117//35
f 73//24 168//24 72//24
f 88//35 119//35 87//35
f 65//74 130//74 97//74
f 89//35 122//35 121//35
f 92//75 156//75 124//75
f 91//35 124//35 123//35
f 98//76 191//76 66//76
f 94//35 125//35 93//35
f 123//77 185//77 91//77
f 96//35 127//35 95//35
f 114//18 145//18 115//18
f 161//35 130//35 162//35
f 164//35 131//35 132//35
f 165//35 134//35 166//35
f 167//35 136//35 168//35
f 170//35 137//35 138//35
f 172//35 139//35 140//35
f 173//35 142//35 174//35
f 176//35 143//35 144//35
f 177//35 146//35 178//35
f 180//35 147//35 148//35
f 181//35 150//35 182//35
f 184//35 151//35 152//35
f 185//35 154//35 186//35
f 188//35 155//35 156//35
f 190//35 157//35 158//35
f 191//35 160//35 192//35
f 70//78 134//78 102//78
f 77//28 172//28 76//28
f 120//24 151//24 121//24
f 103//79 165//79 71//79
f 72//80 136//80 104//80
f 79//30 174//30 78//30
f 122//26 153//26 123//26
f 105//81 167//81 73//81
f 74//82 138//82 106//82
f 81//33 176//33 80//33
f 124//28 155//28 125//28
f 97//2 129//2 99//2
f 107//83 169//83 75//83
f 76//84 140//84 108//84
f 83//2 178//2 82//2
f 126//30 157//30 127//30
f 100//4 131//4 101//4
f 109//85 171//85 77//85
f 78//86 142//86 110//86
f 85//4 180//4 84//4
f 128//33 159//33 98//33
f 102//6 133//6 103//6
f 111//87 173//87 79//87
f 80//88 144//88 112//88
f 87//6 182//6 86//6
f 104//8 135//8 105//8
f 113//89 175//89 81//89
f 82//90 146//90 114//90
f 89//8 184//8 88//8
f 106//10 137//10 107//10
f 115//91 177//91 83//91
f 84//92 148//92 116//92
f 91//10 186//10 90//10
f 108//12 139//12 109//12
f 117//93 179//93 85//93
f 86//94 150//94 118//94
f 93//12 188//12 92//12
f 67//18 162//18 65//18
f 110//14 141//14 111//14
f 119//95 181//95 87//95
f 88//96 152//96 120//96
f 95//14 190//14 94//14
f 69//20 164//20 68//20
f 112//16 143//16 113//16
f 121//97 183//97 89//97
f 90//98 154//98 122//98
f 66//16 192//16 96//16
f 71//22 166//22 70//22
f 2//1 4//1 3//1
f 4//2 6//2 5//2
f 6//3 8//3 7//3
f 8//4 10//4 9//4
f 10//5 12//5 11//5
f 12//6 14//6 13//6
f 14//7 16//7 15//7
f 16//8 18//8 17//8
f 18//9 20//9 19//9
f 20//10 22//10 21//10
f 22//11 24//11 23//11
f 24//12 26//12 25//12
f 26//13 28//13 27//13
f 28//14 30//14 29//14
f 30//15 32//15 31//15
f 32//16 34//16 33//16
f 34//17 36//17 35//17
f 36//18 38//18 37//18
f 38//19 40//19 39//19
f 40//20 42//20 41//20
f 42//21 44//21 43//21
f 44//22 46//22 45//22
f 46//23 48//23 47//23
f 48//24 50//24 49//24
f 50//25 52//25 51//25
f 52//26 54//26 53//26
f 54//27 56//27 55//27
f 56//28 58//28 57//28
f 58//29 60//29 59//29
f 60//30 62//30 61//30
f 8//31 6//31 99//31
f 62//32 64//32 63//32
f 64//33 2//33 1//33
f 63//34 1//34 3//34
f 3//34 5//34 7//34
f 7//34 9//34 11//34
f 11//34 13//34 7//34
f 13//34 15//34 7//34
f 15//34 17//34 19//34
f 19//34 21//34 15//34
f 21//34 23//34 15//34
f 23//34 25//34 31//34
f 25//34 27//34 31//34
f 27//34 29//34 31//34
f 31//34 33//34 35//34
f 35//34 37//34 39//34
f 39//34 41//34 43//34
f 43//34 45//34 47//34
f 47//34 49//34 51//34
f 51//34 53//34 55//34
f 55//34 57//34 63//34
f 57//34 59//34 63//34
f 59//34 61//34 63//34
f 63//34 3//34 7//34
f 31//34 35//34 47//34
f 35//34 39//34 47//34
f 39//34 43//34 47//34
f 47//34 51//34 63//34
f 51//34 55//34 63//34
f 63//34 7//34 15//34
f 15//34 23//34 31//34
f 63//34 15//34 47//34
f 67//35 65//35 95//35
f 65//35 66//35 95//35
f 66//35 96//35 95//35
f 95//35 94//35 93//35
f 93//35 92//35 95//35
f 92//35 91//35 95//35
f 91//35 90//35 87//35
f 90//35 89//35 87//35
f 89//35 88//35 87//35
f 87//35 86//35 83//35
f 86//35 85//35 83//35
f 85//35 84//35 83//35
f 83//35 82//35 81//35
f 81//35 80//35 79//35
f 79//35 78//35 77//35
f 77//35 76//35 75//35
f 75//35 74//35 73//35
f 73//35 72//35 71//35
f 71//35 70//35 69//35
f 69//35 68//35 67//35
f 83//35 81//35 79//35
f 79//35 77//35 75//35
f 75//35 73//35 67//35
f 73//35 71//35 67//35
f 71//35 69//35 67//35
f 67//35 95//35 91//35
f 91//35 87//35 83//35
f 83//35 79//35 67//35
f 79//35 75//35 67//35
f 24//36 108//36 109//36
f 42//37 117//37 118//37
f 60//38 126//38 127//38
f 18//39 16//39 104//39
f 36//40 34//40 113//40
f 52//41 122//41 123//41
f 10//42 8//42 100//42
f 28//43 26//43 109//43
f 46//44 44//44 118//44
f 62//45 127//45 128//45
f 20//46 18//46 105//46
f 36//47 114//47 115//47
f 54//48 123//48 124//48
f 10//49 101//49 102//49
f 28//50 110//50 111//50
f 46//99 119//99 120//99
f 2//52 98//52 97//52
f 64//53 128//53 98//53
f 20//100 106//100 107//100
f 38//55 115//55 116//55
f 56//56 124//56 125//56
f 14//57 12//57 102//57
f 30//58 111//58 112//58
f 48//59 120//59 121//59
f 4//101 97//101 99//101
f 24//61 22//61 107//61
f 40//62 116//62 117//62
f 58//63 125//63 126//63
f 16//102 14//102 103//102
f 34//65 32//65 112//65
f 50//66 121//66 122//66
f 65//35 97//35 98//35
f 96//67 192//67 160//67
f 68//35 100//35 99//35
f 101//68 131//68 163//68
f 70//35 102//35 101//35
f 127//69 157//69 189//69
f 72//35 104//35 103//35
f 118//22 150//22 149//22
f 74//35 106//35 105//35
f 75//26 169//26 170//26
f 76//35 108//35 107//35
f 68//70 164//70 132//70
f 78//35 110//35 109//35
f 94//71 190//71 158//71
f 79//35 80//35 112//35
f 99//72 129//72 161//72
f 82//35 114//35 113//35
f 125//73 155//73 187//73
f 83//35 84//35 116//35
f 116//20 148//20 147//20
f 85//35 86//35 118//35
f 73//24 167//24 168//24
f 88//35 120//35 119//35
f 65//74 162//74 130//74
f 89//35 90//35 122//35
f 92//75 188//75 156//75
f 91//35 92//35 124//35
f 98//76 159//76 191//76
f 94//35 126//35 125//35
f 123//77 153//77 185//77
f 96//35 128//35 127//35
f 114//18 146//18 145//18
f 161//35 129//35 130//35
f 164//35 163//35 131//35
f 165//35 133//35 134//35
f 167//35 135//35 136//35
f 170//35 169//35 137//35
f 172//35 171//35 139//35
f 173//35 141//35 142//35
f 176//35 175//35 143//35
f 177//35 145//35 146//35
f 180//35 179//35 147//35
f 181//35 149//35 150//35
f 184//35 183//35 151//35
f 185//35 153//35 154//35
f 188//35 187//35 155//35
f 190//35 189//35 157//35
f 191//35 159//35 160//35
f 70//78 166//78 134//78
f 77//28 171//28 172//28
f 120//24 152//24 151//24
f 103//79 133//79 165//79
f 72//80 168//80 136//80
f 79//30 173//30 174//30
f 122//26 154//26 153//26
f 105//81 135//81 167//81
f 74//82 170//82 138//82
f 81//33 175//33 176//33
f 124//28 156//28 155//28
f 97//2 130//2 129//2
f 107//83 137//83 169//83
f 76//84 172//84 140//84
f 83//2 177//2 178//2
f 126//30 158//30 157//30
f 100//4 132//4 131//4
f 109//85 139//85 171//85
f 78//86 174//86 142//86
f 85//4 179//4 180//4
f 128//33 160//33 159//33
f 102//6 134//6 133//6
f 111//87 141//87 173//87
f 80//88 176//88 144//88
f 87//6 181//6 182//6
f 104//8 136//8 135//8
f 113//89 143//89 175//89
f 82//90 178//90 146//90
f 89//8 183//8 184//8
f 106//10 138//10 137//10
f 115//91 145//91 177//91
f 84//92 180//92 148//92
f 91//10 185//10 186//10
f 108//12 140//12 139//12
f 117//93 147//93 179//93
f 86//94 182//94 150//94
f 93//12 187//12 188//12
f 67//18 161//18 162//18
f 110//14 142//14 141//14
f 119//95 149//95 181//95
f 88//96 184//96 152//96
f 95//14 189//14 190//14
f 69//20 163//20 164//20
f 112//16 144//16 143//16
f 121//97 151//97 183//97
f 90//98 186//98 154//98
f 66//16 191//16 192//16
f 71//22 165//22 166//22
